REM DIRINDEX 1\3,1\2\4,1\2\5,1\2\6
REM DIRNAME folder01,folder02,folder03,folder04,folder05,folder06
TITLE ""
FILE "101.mp3" MP3
  TRACK 01 AUDIO
    TITLE "0:"
    INDEX 01 00:00:00
  TRACK 02 AUDIO
    TITLE "4:cjc137_4161"
    INDEX 01 00:00:03
  TRACK 03 AUDIO
    TITLE "0:"
    INDEX 01 00:01:11
  TRACK 04 AUDIO
    TITLE "6:cjc137_4162"
    INDEX 01 00:01:21
  TRACK 05 AUDIO
    TITLE "0:"
    INDEX 01 00:02:47
  TRACK 06 AUDIO
    TITLE "5:cjc137_4163"
    INDEX 01 00:02:57
  TRACK 07 AUDIO
    TITLE "0:"
    INDEX 01 00:03:66
  TRACK 08 AUDIO
    TITLE "4:cjc137_4164"
    INDEX 01 00:05:01
  TRACK 09 AUDIO
    TITLE "0:"
    INDEX 01 00:06:20
  TRACK 10 AUDIO
    TITLE "6:cjc137_4165"
    INDEX 01 00:06:26
  TRACK 11 AUDIO
    TITLE "0:"
    INDEX 01 00:07:41
  TRACK 12 AUDIO
    TITLE "5:cjc137_4166"
    INDEX 01 00:07:49
  TRACK 13 AUDIO
    TITLE "0:"
    INDEX 01 00:08:64
  TRACK 14 AUDIO
    TITLE "4:cjc137_4167"
    INDEX 01 00:10:00
  TRACK 15 AUDIO
    TITLE "0:"
    INDEX 01 00:11:19
  TRACK 16 AUDIO
    TITLE "6:cjc137_4168"
    INDEX 01 00:11:29
  TRACK 17 AUDIO
    TITLE "0:"
    INDEX 01 00:12:24
  TRACK 18 AUDIO
    TITLE "5:cjc137_4169"
    INDEX 01 00:12:30
  TRACK 19 AUDIO
    TITLE "0:"
    INDEX 01 00:13:49
  TRACK 20 AUDIO
    TITLE "4:cjc137_4170"
    INDEX 01 00:14:60
  TRACK 21 AUDIO
    TITLE "0:"
    INDEX 01 00:16:20
  TRACK 22 AUDIO
    TITLE "6:cjc137_4171"
    INDEX 01 00:16:28
  TRACK 23 AUDIO
    TITLE "0:"
    INDEX 01 00:17:49
  TRACK 24 AUDIO
    TITLE "5:cjc137_4172"
    INDEX 01 00:17:55
  TRACK 25 AUDIO
    TITLE "0:"
    INDEX 01 00:19:15
  TRACK 26 AUDIO
    TITLE "4:cjc137_4173"
    INDEX 01 00:20:26
  TRACK 27 AUDIO
    TITLE "0:"
    INDEX 01 00:21:41
  TRACK 28 AUDIO
    TITLE "6:cjc137_4174"
    INDEX 01 00:21:49
  TRACK 29 AUDIO
    TITLE "0:"
    INDEX 01 00:22:60
  TRACK 30 AUDIO
    TITLE "5:cjc137_4175"
    INDEX 01 00:22:66
  TRACK 31 AUDIO
    TITLE "0:"
    INDEX 01 00:24:08
  TRACK 32 AUDIO
    TITLE "4:cjc137_4176"
    INDEX 01 00:25:15
  TRACK 33 AUDIO
    TITLE "0:"
    INDEX 01 00:26:22
  TRACK 34 AUDIO
    TITLE "6:cjc137_4177"
    INDEX 01 00:26:34
  TRACK 35 AUDIO
    TITLE "0:"
    INDEX 01 00:27:41
  TRACK 36 AUDIO
    TITLE "5:cjc137_4178"
    INDEX 01 00:27:45
  TRACK 37 AUDIO
    TITLE "0:"
    INDEX 01 00:28:51
  TRACK 38 AUDIO
    TITLE "4:cjc137_4179"
    INDEX 01 00:29:66
  TRACK 39 AUDIO
    TITLE "0:"
    INDEX 01 00:31:12
  TRACK 40 AUDIO
    TITLE "6:cjc137_4180"
    INDEX 01 00:31:24
  TRACK 41 AUDIO
    TITLE "0:"
    INDEX 01 00:32:23
  TRACK 42 AUDIO
    TITLE "5:cjc137_4181"
    INDEX 01 00:32:33
  TRACK 43 AUDIO
    TITLE "0:"
    INDEX 01 00:33:52
  TRACK 44 AUDIO
    TITLE "4:cjc137_4182"
    INDEX 01 00:34:67
  TRACK 45 AUDIO
    TITLE "0:"
    INDEX 01 00:36:03
  TRACK 46 AUDIO
    TITLE "6:cjc137_4183"
    INDEX 01 00:36:13
  TRACK 47 AUDIO
    TITLE "0:"
    INDEX 01 00:37:12
  TRACK 48 AUDIO
    TITLE "5:cjc137_4184"
    INDEX 01 00:37:20
  TRACK 49 AUDIO
    TITLE "0:"
    INDEX 01 00:38:31
  TRACK 50 AUDIO
    TITLE "4:cjc137_4185"
    INDEX 01 00:39:43
  TRACK 51 AUDIO
    TITLE "0:"
    INDEX 01 00:40:62
  TRACK 52 AUDIO
    TITLE "6:cjc137_4186"
    INDEX 01 00:40:70
  TRACK 53 AUDIO
    TITLE "0:"
    INDEX 01 00:42:06
  TRACK 54 AUDIO
    TITLE "5:cjc137_4187"
    INDEX 01 00:42:16
  TRACK 55 AUDIO
    TITLE "0:"
    INDEX 01 00:43:39
  TRACK 56 AUDIO
    TITLE "4:cjc137_4188"
    INDEX 01 00:44:46
  TRACK 57 AUDIO
    TITLE "0:"
    INDEX 01 00:45:73
  TRACK 58 AUDIO
    TITLE "6:cjc137_4189"
    INDEX 01 00:46:06
  TRACK 59 AUDIO
    TITLE "0:"
    INDEX 01 00:47:17
  TRACK 60 AUDIO
    TITLE "5:cjc137_4190"
    INDEX 01 00:47:27
  TRACK 61 AUDIO
    TITLE "0:"
    INDEX 01 00:48:55
  TRACK 62 AUDIO
    TITLE "4:cjc137_4191"
    INDEX 01 00:49:61
  TRACK 63 AUDIO
    TITLE "0:"
    INDEX 01 00:51:11
  TRACK 64 AUDIO
    TITLE "6:cjc137_4192"
    INDEX 01 00:51:20
  TRACK 65 AUDIO
    TITLE "0:"
    INDEX 01 00:52:28
  TRACK 66 AUDIO
    TITLE "5:cjc137_4193"
    INDEX 01 00:52:36
  TRACK 67 AUDIO
    TITLE "0:"
    INDEX 01 00:53:60
  TRACK 68 AUDIO
    TITLE "4:cjc137_4194"
    INDEX 01 00:54:70
  TRACK 69 AUDIO
    TITLE "0:"
    INDEX 01 00:56:00
  TRACK 70 AUDIO
    TITLE "6:cjc137_4195"
    INDEX 01 00:56:08
  TRACK 71 AUDIO
    TITLE "0:"
    INDEX 01 00:57:21
  TRACK 72 AUDIO
    TITLE "5:cjc137_4196"
    INDEX 01 00:57:27
  TRACK 73 AUDIO
    TITLE "0:"
    INDEX 01 00:58:30
  TRACK 74 AUDIO
    TITLE "4:cjc137_4197"
    INDEX 01 00:59:41
  TRACK 75 AUDIO
    TITLE "0:"
    INDEX 01 01:00:49
  TRACK 76 AUDIO
    TITLE "6:cjc137_4198"
    INDEX 01 01:00:55
  TRACK 77 AUDIO
    TITLE "0:"
    INDEX 01 01:02:01
  TRACK 78 AUDIO
    TITLE "5:cjc137_4199"
    INDEX 01 01:02:08
  TRACK 79 AUDIO
    TITLE "0:"
    INDEX 01 01:03:16
  TRACK 80 AUDIO
    TITLE "4:cjc137_4200"
    INDEX 01 01:04:31
  TRACK 81 AUDIO
    TITLE "0:"
    INDEX 01 01:05:46
  TRACK 82 AUDIO
    TITLE "6:cjc137_4201"
    INDEX 01 01:05:52
  TRACK 83 AUDIO
    TITLE "0:"
    INDEX 01 01:06:61
  TRACK 84 AUDIO
    TITLE "5:cjc137_4202"
    INDEX 01 01:07:00
  TRACK 85 AUDIO
    TITLE "0:"
    INDEX 01 01:08:15
